<mxfile host="app.diagrams.net" agent="Mozilla/5.0 (Windows NT 10.0; Win64; x64) AppleWebKit/537.36 (KHTML, like Gecko) Chrome/135.0.0.0 Safari/537.36" version="26.2.13">
  <diagram name="第 1 页" id="5hclALBQlh2AVa7bqb6c">
    <mxGraphModel dx="1344" dy="800" grid="1" gridSize="10" guides="1" tooltips="1" connect="1" arrows="1" fold="1" page="1" pageScale="1" pageWidth="827" pageHeight="1169" math="0" shadow="0">
      <root>
        <mxCell id="0" />
        <mxCell id="1" parent="0" />
        <mxCell id="3JH64mggHEF-HZqg0yWP-1" value="System" style="shape=umlLifeline;perimeter=lifelinePerimeter;whiteSpace=wrap;container=1;dropTarget=0;collapsible=0;recursiveResize=0;outlineConnect=0;portConstraint=eastwest;newEdgeStyle={&quot;edgeStyle&quot;:&quot;elbowEdgeStyle&quot;,&quot;elbow&quot;:&quot;vertical&quot;,&quot;curved&quot;:0,&quot;rounded&quot;:0};size=65;" vertex="1" parent="1">
          <mxGeometry x="279" y="30" width="150" height="580" as="geometry" />
        </mxCell>
        <mxCell id="3JH64mggHEF-HZqg0yWP-2" value="Server" style="shape=umlLifeline;perimeter=lifelinePerimeter;whiteSpace=wrap;container=1;dropTarget=0;collapsible=0;recursiveResize=0;outlineConnect=0;portConstraint=eastwest;newEdgeStyle={&quot;edgeStyle&quot;:&quot;elbowEdgeStyle&quot;,&quot;elbow&quot;:&quot;vertical&quot;,&quot;curved&quot;:0,&quot;rounded&quot;:0};size=65;" vertex="1" parent="1">
          <mxGeometry x="479" y="30" width="150" height="580" as="geometry" />
        </mxCell>
        <mxCell id="3JH64mggHEF-HZqg0yWP-3" value="" style="points=[];perimeter=orthogonalPerimeter;outlineConnect=0;targetShapes=umlLifeline;portConstraint=eastwest;newEdgeStyle={&quot;edgeStyle&quot;:&quot;elbowEdgeStyle&quot;,&quot;elbow&quot;:&quot;vertical&quot;,&quot;curved&quot;:0,&quot;rounded&quot;:0}" vertex="1" parent="3JH64mggHEF-HZqg0yWP-2">
          <mxGeometry x="70" y="106" width="10" height="431" as="geometry" />
        </mxCell>
        <mxCell id="3JH64mggHEF-HZqg0yWP-4" value="loop" style="shape=umlFrame;pointerEvents=0;dropTarget=0;strokeColor=#B3B3B3;height=20;width=40" vertex="1" parent="1">
          <mxGeometry x="260" y="239" width="389" height="179" as="geometry" />
        </mxCell>
        <mxCell id="3JH64mggHEF-HZqg0yWP-5" value="[处理队列车辆]" style="text;strokeColor=none;fillColor=none;align=center;verticalAlign=middle;whiteSpace=wrap;" vertex="1" parent="3JH64mggHEF-HZqg0yWP-4">
          <mxGeometry x="91.52941176470588" width="297.47058823529403" height="20" as="geometry" />
        </mxCell>
        <mxCell id="3JH64mggHEF-HZqg0yWP-6" value="opt" style="shape=umlFrame;pointerEvents=0;dropTarget=0;strokeColor=#B3B3B3;height=20;width=30" vertex="1" parent="1">
          <mxGeometry x="343" y="428" width="231" height="98" as="geometry" />
        </mxCell>
        <mxCell id="3JH64mggHEF-HZqg0yWP-7" value="[故障恢复]" style="text;strokeColor=none;fillColor=none;align=center;verticalAlign=middle;whiteSpace=wrap;" vertex="1" parent="3JH64mggHEF-HZqg0yWP-6">
          <mxGeometry x="30" width="201" height="20" as="geometry" />
        </mxCell>
        <mxCell id="3JH64mggHEF-HZqg0yWP-8" value="故障报警信号" style="verticalAlign=bottom;edgeStyle=elbowEdgeStyle;elbow=vertical;curved=0;rounded=0;endArrow=block;" edge="1" parent="1" source="3JH64mggHEF-HZqg0yWP-1" target="3JH64mggHEF-HZqg0yWP-3">
          <mxGeometry relative="1" as="geometry">
            <Array as="points">
              <mxPoint x="461" y="137" />
            </Array>
          </mxGeometry>
        </mxCell>
        <mxCell id="3JH64mggHEF-HZqg0yWP-9" value="标记为&quot;维修中&quot;" style="curved=1;endArrow=block;rounded=0;" edge="1" parent="1" source="3JH64mggHEF-HZqg0yWP-3" target="3JH64mggHEF-HZqg0yWP-3">
          <mxGeometry relative="1" as="geometry">
            <Array as="points">
              <mxPoint x="614" y="189" />
              <mxPoint x="614" y="219" />
            </Array>
          </mxGeometry>
        </mxCell>
        <mxCell id="3JH64mggHEF-HZqg0yWP-10" value="重新调度至空闲桩" style="curved=1;endArrow=block;rounded=0;" edge="1" parent="1" source="3JH64mggHEF-HZqg0yWP-3" target="3JH64mggHEF-HZqg0yWP-3">
          <mxGeometry relative="1" as="geometry">
            <Array as="points">
              <mxPoint x="614" y="338" />
              <mxPoint x="614" y="368" />
            </Array>
          </mxGeometry>
        </mxCell>
        <mxCell id="3JH64mggHEF-HZqg0yWP-11" value="手动重启指令" style="verticalAlign=bottom;edgeStyle=elbowEdgeStyle;elbow=vertical;curved=0;rounded=0;endArrow=block;" edge="1" parent="1" source="3JH64mggHEF-HZqg0yWP-3" target="3JH64mggHEF-HZqg0yWP-1">
          <mxGeometry relative="1" as="geometry">
            <Array as="points">
              <mxPoint x="464" y="506" />
            </Array>
          </mxGeometry>
        </mxCell>
        <mxCell id="3JH64mggHEF-HZqg0yWP-12" value="维修状态确认" style="verticalAlign=bottom;edgeStyle=elbowEdgeStyle;elbow=vertical;curved=0;rounded=0;dashed=1;dashPattern=2 3;endArrow=block;" edge="1" parent="1" source="3JH64mggHEF-HZqg0yWP-3" target="3JH64mggHEF-HZqg0yWP-1">
          <mxGeometry relative="1" as="geometry">
            <Array as="points">
              <mxPoint x="464" y="568" />
            </Array>
          </mxGeometry>
        </mxCell>
      </root>
    </mxGraphModel>
  </diagram>
</mxfile>
